<?xml version="1.0" standalone="no"?>
<!DOCTYPE svg PUBLIC "-//W3C//DTD SVG 20010904//EN"
 "http://www.w3.org/TR/2001/REC-SVG-20010904/DTD/svg10.dtd">
<svg version="1.0" xmlns="http://www.w3.org/2000/svg"
 width="860.000000pt" height="487.000000pt" viewBox="0 0 860.000000 487.000000"
 preserveAspectRatio="xMidYMid meet">

<g transform="translate(0.000000,487.000000) scale(0.100000,-0.100000)"
fill="#000000" stroke="none">
<path d="M3550 4110 c-1284 -618 -1194 -572 -1213 -612 -31 -66 -16 -134 39
-177 l27 -21 1897 0 1897 0 27 21 c57 45 70 111 37 178 -19 36 -44 49 -971
494 -811 390 -957 457 -993 456 -34 -1 -181 -67 -747 -339z m849 -120 c91 -46
135 -164 95 -258 -33 -79 -110 -132 -193 -132 -64 0 -91 11 -140 55 -182 165
19 447 238 335z"/>
<path d="M2772 2918 c-9 -9 -12 -235 -12 -955 0 -921 0 -943 19 -953 12 -6 98
-10 209 -10 170 0 191 2 205 18 16 17 17 97 17 946 0 620 -3 934 -10 947 -10
18 -23 19 -213 19 -145 0 -206 -3 -215 -12z"/>
<path d="M3652 2918 c-9 -9 -12 -235 -12 -955 0 -921 0 -943 19 -953 12 -6 98
-10 209 -10 170 0 191 2 205 18 16 17 17 97 17 946 0 620 -3 934 -10 947 -10
18 -23 19 -213 19 -145 0 -206 -3 -215 -12z"/>
<path d="M4510 2911 c-7 -13 -10 -326 -10 -943 0 -820 2 -926 16 -946 15 -21
20 -22 210 -22 181 0 195 1 214 20 20 20 20 33 20 943 0 819 -2 925 -16 945
-15 22 -20 22 -219 22 -192 0 -205 -1 -215 -19z"/>
<path d="M5400 2911 c-7 -13 -10 -327 -10 -949 0 -887 1 -930 18 -945 16 -15
46 -17 206 -17 110 0 195 4 207 10 19 10 19 32 19 953 0 720 -3 946 -12 955
-9 9 -70 12 -215 12 -190 0 -203 -1 -213 -19z"/>
<path d="M2386 649 c-69 -54 -74 -149 -12 -206 l36 -33 1896 0 1896 0 33 33
c62 62 55 158 -14 204 l-34 23 -1887 0 -1887 0 -27 -21z"/>
</g>
</svg>
